<svg width="50" height="50" viewBox="0 0 50 50" fill="none" xmlns="http://www.w3.org/2000/svg">
<path d="M8.33342 22.9167H18.7501C21.0417 22.9167 22.9167 21.0417 22.9167 18.7501V8.33342C22.9167 6.04175 21.0417 4.16675 18.7501 4.16675H8.33342C6.04175 4.16675 4.16675 6.04175 4.16675 8.33342V18.7501C4.16675 21.0417 6.04175 22.9167 8.33342 22.9167ZM8.33342 8.33342H18.7501V18.7501H8.33342V8.33342ZM31.2501 27.0834C28.9584 27.0834 27.0834 28.9584 27.0834 31.2501V41.6668C27.0834 43.9584 28.9584 45.8334 31.2501 45.8334H41.6668C43.9584 45.8334 45.8334 43.9584 45.8334 41.6668V31.2501C45.8334 28.9584 43.9584 27.0834 41.6668 27.0834H31.2501ZM31.2501 41.6668V31.2501H41.6668V41.6668H31.2501ZM8.33342 41.6668H14.5834V45.8334L22.9167 39.5834L14.5834 33.3334V37.5001H8.33342V27.0834H4.16675V37.5001C4.16675 39.7918 6.04175 41.6668 8.33342 41.6668ZM45.8334 12.5001C45.8334 10.2084 43.9584 8.33342 41.6668 8.33342H35.4167V4.16675L27.0834 10.4167L35.4167 16.6667V12.5001H41.6668V22.9167H45.8334V12.5001Z" fill="#084399"/>
</svg>
