<svg width="50" height="50" viewBox="0 0 50 50" fill="none" xmlns="http://www.w3.org/2000/svg">
<path d="M25 12.5L27.9875 18.2859L34.375 19.2141L29.6875 23.4375L31.25 29.6875L25 26.1719L18.75 29.6875L20.3125 23.4375L15.625 19.2141L22.1875 18.2859L25 12.5Z" fill="#084399"/>
<path d="M27.7125 46.875L25 45.3125L31.25 34.375H40.625C41.0356 34.3756 41.4422 34.2952 41.8216 34.1384C42.201 33.9816 42.5458 33.7514 42.8361 33.4611C43.1264 33.1708 43.3566 32.826 43.5134 32.4466C43.6702 32.0672 43.7506 31.6606 43.75 31.25V12.5C43.7506 12.0894 43.6702 11.6828 43.5134 11.3034C43.3566 10.924 43.1264 10.5792 42.8361 10.2889C42.5458 9.99861 42.201 9.76845 41.8216 9.61162C41.4422 9.45479 41.0356 9.37438 40.625 9.375H9.375C8.96445 9.37438 8.55781 9.45479 8.17838 9.61162C7.79896 9.76845 7.45422 9.99861 7.16392 10.2889C6.87361 10.5792 6.64345 10.924 6.48662 11.3034C6.32979 11.6828 6.24938 12.0894 6.25 12.5V31.25C6.24938 31.6606 6.32979 32.0672 6.48662 32.4466C6.64345 32.826 6.87361 33.1708 7.16392 33.4611C7.45422 33.7514 7.79896 33.9816 8.17838 34.1384C8.55781 34.2952 8.96445 34.3756 9.375 34.375H23.4375V37.5H9.375C7.7174 37.5 6.12769 36.8415 4.95558 35.6694C3.78348 34.4973 3.125 32.9076 3.125 31.25V12.5C3.125 10.8424 3.78348 9.25268 4.95558 8.08058C6.12769 6.90848 7.7174 6.25 9.375 6.25H40.625C42.2826 6.25 43.8723 6.90848 45.0444 8.08058C46.2165 9.25268 46.875 10.8424 46.875 12.5V31.25C46.875 32.9076 46.2165 34.4973 45.0444 35.6694C43.8723 36.8415 42.2826 37.5 40.625 37.5H33.0703L27.7125 46.875Z" fill="#084399"/>
</svg>
