<svg width="50" height="50" viewBox="0 0 50 50" fill="none" xmlns="http://www.w3.org/2000/svg">
<path d="M27.3146 28.3542C29.4637 26.2051 32.3785 24.9977 35.4177 24.9977C38.457 24.9977 41.3718 26.2051 43.5208 28.3542C45.6699 30.5032 46.8773 33.418 46.8773 36.4573C46.8773 39.4966 45.6699 42.4113 43.5208 44.5604C43.2238 44.8324 42.8333 44.9794 42.4306 44.9707C42.0279 44.962 41.6441 44.7984 41.359 44.5138C41.0739 44.2293 40.9096 43.8458 40.9001 43.4431C40.8907 43.0405 41.0369 42.6497 41.3083 42.3521C42.474 41.1867 43.268 39.7019 43.5897 38.0853C43.9114 36.4687 43.7466 34.7931 43.1159 33.2702C42.4853 31.7473 41.4172 30.4457 40.0467 29.5299C38.6762 28.6141 37.065 28.1253 35.4167 28.1253C33.7684 28.1253 32.1571 28.6141 30.7867 29.5299C29.4162 30.4457 28.3481 31.7473 27.7174 33.2702C27.0868 34.7931 26.9219 36.4687 27.2436 38.0853C27.5654 39.7019 28.3593 41.1867 29.525 42.3521C29.801 42.6483 29.9513 43.04 29.9441 43.4448C29.937 43.8496 29.773 44.2359 29.4867 44.5221C29.2004 44.8084 28.8142 44.9724 28.4094 44.9795C28.0046 44.9867 27.6129 44.8364 27.3167 44.5604C26.2524 43.4964 25.4082 42.2331 24.8322 40.8428C24.2562 39.4524 23.9597 37.9622 23.9597 36.4573C23.9597 34.9524 24.2562 33.4622 24.8322 32.0718C25.4082 30.6815 26.2524 29.4182 27.3167 28.3542M24.4792 27.0833C24.8417 27.0833 25.1931 27.1236 25.5333 27.2042C24.6938 28.1 23.975 29.1104 23.4021 30.2083H8.85417C8.43977 30.2083 8.04234 30.373 7.74932 30.666C7.45629 30.959 7.29167 31.3564 7.29167 31.7708C7.29167 32.0042 7.28334 32.2396 7.30625 32.4729C7.42615 33.4894 7.79386 34.4609 8.37709 35.3021C9.40417 36.7729 11.6208 38.5417 16.6667 38.5417C18.95 38.5417 20.6521 38.175 21.9271 37.6417C22.0243 38.7194 22.2382 39.7528 22.5688 40.7417C20.9813 41.3125 19.0396 41.6667 16.6667 41.6667C10.775 41.6667 7.52084 39.5292 5.81667 37.0938C4.9261 35.8134 4.369 34.3312 4.19584 32.7812C4.1625 32.4437 4.16667 32.1104 4.16667 31.7708C4.16667 30.5276 4.66053 29.3353 5.53961 28.4563C6.41868 27.5772 7.61097 27.0833 8.85417 27.0833H24.4792ZM31.0063 32.0375C32.185 30.899 33.7638 30.269 35.4025 30.2833C37.0412 30.2975 38.6088 30.9548 39.7676 32.1136C40.9264 33.2724 41.5837 34.84 41.598 36.4787C41.6122 38.1175 40.9822 39.6962 39.8438 40.875C39.7007 41.0285 39.5282 41.1516 39.3365 41.237C39.1449 41.3224 38.938 41.3684 38.7282 41.3721C38.5184 41.3758 38.31 41.3372 38.1154 41.2586C37.9209 41.18 37.7441 41.063 37.5958 40.9147C37.4474 40.7663 37.3304 40.5896 37.2518 40.395C37.1732 40.2004 37.1347 39.992 37.1384 39.7822C37.1421 39.5724 37.188 39.3655 37.2734 39.1739C37.3588 38.9822 37.4819 38.8097 37.6354 38.6667C38.0723 38.2295 38.3697 37.6727 38.4901 37.0666C38.6105 36.4604 38.5485 35.8322 38.3119 35.2613C38.0754 34.6904 37.6748 34.2025 37.161 33.8592C36.6471 33.5159 36.043 33.3327 35.425 33.3327C34.807 33.3327 34.2029 33.5159 33.6891 33.8592C33.1752 34.2025 32.7747 34.6904 32.5381 35.2613C32.3015 35.8322 32.2395 36.4604 32.3599 37.0666C32.4803 37.6727 32.7778 38.2295 33.2146 38.6667C33.4906 38.9629 33.6408 39.3546 33.6337 39.7594C33.6266 40.1642 33.4626 40.5504 33.1763 40.8367C32.89 41.123 32.5038 41.287 32.099 41.2941C31.6942 41.3013 31.3025 41.151 31.0063 40.875C29.8346 39.703 29.1763 38.1135 29.1763 36.4562C29.1763 34.799 29.8346 33.2095 31.0063 32.0375ZM16.6667 6.25C18.8768 6.25 20.9964 7.12797 22.5592 8.69078C24.122 10.2536 25 12.3732 25 14.5833C25 16.7935 24.122 18.9131 22.5592 20.4759C20.9964 22.0387 18.8768 22.9167 16.6667 22.9167C14.4565 22.9167 12.3369 22.0387 10.7741 20.4759C9.21131 18.9131 8.33334 16.7935 8.33334 14.5833C8.33334 12.3732 9.21131 10.2536 10.7741 8.69078C12.3369 7.12797 14.4565 6.25 16.6667 6.25ZM35.4167 10.4167C37.0743 10.4167 38.664 11.0751 39.8361 12.2472C41.0082 13.4194 41.6667 15.0091 41.6667 16.6667C41.6667 18.3243 41.0082 19.914 39.8361 21.0861C38.664 22.2582 37.0743 22.9167 35.4167 22.9167C33.7591 22.9167 32.1694 22.2582 30.9973 21.0861C29.8252 19.914 29.1667 18.3243 29.1667 16.6667C29.1667 15.0091 29.8252 13.4194 30.9973 12.2472C32.1694 11.0751 33.7591 10.4167 35.4167 10.4167ZM16.6667 9.375C15.2853 9.375 13.9606 9.92373 12.9838 10.9005C12.0071 11.8772 11.4583 13.202 11.4583 14.5833C11.4583 15.9647 12.0071 17.2894 12.9838 18.2662C13.9606 19.2429 15.2853 19.7917 16.6667 19.7917C18.048 19.7917 19.3728 19.2429 20.3495 18.2662C21.3263 17.2894 21.875 15.9647 21.875 14.5833C21.875 13.202 21.3263 11.8772 20.3495 10.9005C19.3728 9.92373 18.048 9.375 16.6667 9.375ZM35.4167 13.5417C34.5879 13.5417 33.793 13.8709 33.207 14.457C32.6209 15.043 32.2917 15.8379 32.2917 16.6667C32.2917 17.4955 32.6209 18.2903 33.207 18.8764C33.793 19.4624 34.5879 19.7917 35.4167 19.7917C36.2455 19.7917 37.0403 19.4624 37.6264 18.8764C38.2124 18.2903 38.5417 17.4955 38.5417 16.6667C38.5417 15.8379 38.2124 15.043 37.6264 14.457C37.0403 13.8709 36.2455 13.5417 35.4167 13.5417Z" fill="#084399"/>
</svg>
