<svg width="38" height="42" viewBox="0 0 38 42" fill="none" xmlns="http://www.w3.org/2000/svg">
<path d="M35.4167 41.6667H2.08333C1.5308 41.6667 1.00089 41.4472 0.610194 41.0565C0.219493 40.6658 0 40.1359 0 39.5833V2.08333C0 1.5308 0.219493 1.00089 0.610194 0.610194C1.00089 0.219493 1.5308 0 2.08333 0H35.4167C35.9692 0 36.4991 0.219493 36.8898 0.610194C37.2805 1.00089 37.5 1.5308 37.5 2.08333V39.5833C37.5 40.1359 37.2805 40.6658 36.8898 41.0565C36.4991 41.4472 35.9692 41.6667 35.4167 41.6667ZM33.3333 37.5V4.16667H4.16667V37.5H33.3333ZM10.4167 10.4167H27.0833V14.5833H10.4167V10.4167ZM10.4167 18.75H27.0833V22.9167H10.4167V18.75ZM10.4167 27.0833H27.0833V31.25H10.4167V27.0833Z" fill="#084399"/>
</svg>
